<?xml version="1.0" encoding="UTF-8" standalone="no"?>
<!DOCTYPE svg PUBLIC "-//W3C//DTD SVG 20010904//EN"
              "http://www.w3.org/TR/2001/REC-SVG-20010904/DTD/svg10.dtd">

<svg xmlns="http://www.w3.org/2000/svg"
     width="1.70667in" height="1.70667in"
     viewBox="0 0 512 512">
  <path id="Vol_Loud"
        fill="none" stroke="white" stroke-width="1"
        d="M 372.00,114.47
           C 387.36,112.32 393.60,119.35 403.00,130.01
             411.44,139.59 421.46,153.62 427.24,165.00
             431.73,173.82 436.04,182.64 439.31,192.00
             457.70,244.72 452.27,307.47 422.32,355.00
             416.05,364.96 408.07,376.52 399.96,385.00
             396.58,388.54 392.42,392.98 388.00,395.08
             370.93,403.19 352.21,390.97 353.04,372.00
             353.50,361.50 361.36,354.41 367.85,347.00
             372.59,341.59 376.45,336.06 380.31,330.00
             393.00,310.03 399.45,287.42 401.09,264.00
             401.09,264.00 401.82,257.00 401.82,257.00
             401.82,257.00 400.96,250.00 400.96,250.00
             400.96,250.00 400.96,241.00 400.96,241.00
             398.80,220.02 391.16,198.86 380.09,181.00
             376.18,174.70 370.61,167.59 365.71,162.00
             357.86,153.02 352.47,149.04 353.04,136.00
             353.51,125.24 361.86,116.95 372.00,114.47 Z
           M 320.00,165.53
           C 342.12,161.92 353.76,181.11 363.42,198.00
             385.62,236.80 382.27,288.85 356.25,325.00
             351.09,332.18 343.33,341.71 335.00,345.07
             319.57,351.29 303.11,340.54 302.09,324.00
             301.27,310.57 311.17,303.97 317.97,294.00
             325.43,283.06 330.48,267.31 329.96,254.00
             329.45,240.77 324.93,227.98 317.64,217.00
             312.21,208.80 303.41,202.26 302.18,192.00
             300.69,179.56 308.18,169.05 320.00,165.53 Z
           M 248.00,99.47
           C 259.73,97.94 269.91,104.52 273.21,116.00
             274.38,120.07 274.00,128.44 274.00,133.00
             274.00,133.00 274.00,164.00 274.00,164.00
             274.00,164.00 274.00,387.00 274.00,387.00
             273.99,393.07 273.70,397.74 270.15,403.00
             262.93,413.70 248.40,415.66 238.00,408.48
             238.00,408.48 223.72,397.34 223.72,397.34
             223.72,397.34 201.00,379.31 201.00,379.31
             201.00,379.31 162.04,348.77 162.04,348.77
             157.06,344.83 139.45,330.00 135.00,328.56
             132.94,327.89 130.18,328.00 128.00,328.00
             128.00,328.00 69.00,328.00 69.00,328.00
             53.15,327.98 45.03,319.83 45.00,304.00
             45.00,304.00 45.00,208.00 45.00,208.00
             45.00,204.98 44.90,201.92 45.80,199.00
             49.19,188.03 58.46,184.02 69.00,184.00
             69.00,184.00 128.00,184.00 128.00,184.00
             130.51,184.00 133.65,184.14 136.00,183.27
             139.28,182.05 144.17,177.59 147.00,175.25
             147.00,175.25 163.00,162.40 163.00,162.40
             163.00,162.40 220.00,117.63 220.00,117.63
             228.67,111.09 237.24,102.03 248.00,99.47 Z" />
</svg>
