<?xml version="1.0" encoding="UTF-8" standalone="no"?>
<!DOCTYPE svg PUBLIC "-//W3C//DTD SVG 20010904//EN"
              "http://www.w3.org/TR/2001/REC-SVG-20010904/DTD/svg10.dtd">

<svg xmlns="http://www.w3.org/2000/svg"
     width="1.70667in" height="1.70667in"
     viewBox="0 0 512 512">
  <path id="Audio"
        fill="none" stroke="black" stroke-width="10"
        d="M 248.00,99.47
           C 259.73,97.94 269.91,104.52 273.21,116.00
             274.38,120.07 274.00,128.44 274.00,133.00
             274.00,133.00 274.00,164.00 274.00,164.00
             274.00,164.00 274.00,387.00 274.00,387.00
             273.99,393.07 273.70,397.74 270.15,403.00
             262.93,413.70 248.40,415.66 238.00,408.48
             238.00,408.48 223.72,397.34 223.72,397.34
             223.72,397.34 201.00,379.31 201.00,379.31
             201.00,379.31 162.04,348.77 162.04,348.77
             157.06,344.83 139.45,330.00 135.00,328.56
             132.94,327.89 130.18,328.00 128.00,328.00
             128.00,328.00 69.00,328.00 69.00,328.00
             53.15,327.98 45.03,319.83 45.00,304.00
             45.00,304.00 45.00,208.00 45.00,208.00
             45.00,204.98 44.90,201.92 45.80,199.00
             49.19,188.03 58.46,184.02 69.00,184.00
             69.00,184.00 128.00,184.00 128.00,184.00
             130.51,184.00 133.65,184.14 136.00,183.27
             139.28,182.05 144.17,177.59 147.00,175.25
             147.00,175.25 163.00,162.40 163.00,162.40
             163.00,162.40 220.00,117.63 220.00,117.63
             228.67,111.09 237.24,102.03 248.00,99.47 Z" />
</svg>
