<?xml version="1.0" encoding="UTF-8" standalone="no"?>
<!DOCTYPE svg PUBLIC "-//W3C//DTD SVG 20010904//EN"
              "http://www.w3.org/TR/2001/REC-SVG-20010904/DTD/svg10.dtd">

<svg xmlns="http://www.w3.org/2000/svg"
     width="1.70667in" height="1.70667in"
     viewBox="0 0 512 512">
  <path id="Mute_Full"
        fill="black" stroke="black" stroke-width="1"
        d="M 404.00,288.00
           C 399.85,293.79 393.15,299.85 388.00,305.00
             383.01,309.99 378.84,315.01 372.00,317.45
             358.43,322.30 342.68,312.64 342.04,298.00
             341.41,283.69 350.77,277.23 360.00,268.00
             362.57,265.43 370.64,258.69 370.09,255.01
             369.68,252.27 363.42,247.31 361.28,245.00
             352.25,235.24 341.39,228.86 342.04,214.00
             342.75,197.75 359.71,189.13 374.00,195.36
             379.17,197.62 383.08,202.08 387.00,206.00
             387.00,206.00 405.00,224.00 405.00,224.00
             409.09,218.29 414.99,213.01 420.00,208.00
             425.05,202.95 430.15,197.09 437.00,194.56
             450.74,189.47 466.62,198.92 466.99,214.00
             467.35,228.95 459.82,233.18 450.00,243.00
             447.61,245.39 439.04,252.90 439.04,256.00
             439.04,259.10 447.61,266.61 450.00,269.00
             459.77,278.77 467.40,283.11 466.98,298.00
             466.54,314.05 449.12,323.25 435.01,316.59
             427.88,313.22 411.66,294.43 404.00,288.00 Z
           M 248.00,99.47
           C 259.73,97.94 269.91,104.52 273.21,116.00
             274.38,120.07 274.00,128.44 274.00,133.00
             274.00,133.00 274.00,164.00 274.00,164.00
             274.00,164.00 274.00,387.00 274.00,387.00
             273.99,393.07 273.70,397.74 270.15,403.00
             262.93,413.70 248.40,415.66 238.00,408.48
             238.00,408.48 223.72,397.34 223.72,397.34
             223.72,397.34 201.00,379.31 201.00,379.31
             201.00,379.31 162.04,348.77 162.04,348.77
             157.06,344.83 139.45,330.00 135.00,328.56
             132.94,327.89 130.18,328.00 128.00,328.00
             128.00,328.00 69.00,328.00 69.00,328.00
             53.15,327.98 45.03,319.83 45.00,304.00
             45.00,304.00 45.00,208.00 45.00,208.00
             45.00,204.98 44.90,201.92 45.80,199.00
             49.19,188.03 58.46,184.02 69.00,184.00
             69.00,184.00 128.00,184.00 128.00,184.00
             130.51,184.00 133.65,184.14 136.00,183.27
             139.28,182.05 144.17,177.59 147.00,175.25
             147.00,175.25 163.00,162.40 163.00,162.40
             163.00,162.40 220.00,117.63 220.00,117.63
             228.67,111.09 237.24,102.03 248.00,99.47 Z" />
</svg>
