<?xml version="1.0" encoding="UTF-8" standalone="no"?>
<!DOCTYPE svg PUBLIC "-//W3C//DTD SVG 20010904//EN"
              "http://www.w3.org/TR/2001/REC-SVG-20010904/DTD/svg10.dtd">

<svg xmlns="http://www.w3.org/2000/svg"
     width="1.70667in" height="1.70667in"
     viewBox="0 0 512 512">
  <path id="Vol_Down"
        fill="none" stroke="black" stroke-width="20"
        d="M 338.00,234.16
           C 338.00,234.16 382.00,234.16 382.00,234.16
             382.00,234.16 464.00,234.16 464.00,234.16
             469.83,234.01 475.86,234.43 480.96,237.61
             493.60,245.49 494.36,263.85 482.83,273.06
             477.38,277.41 470.67,277.99 464.00,278.00
             464.00,278.00 346.00,278.00 346.00,278.00
             338.00,277.99 331.14,277.01 325.33,270.82
             321.53,266.77 320.13,262.44 320.02,257.00
             319.75,244.56 326.01,237.33 338.00,234.16 Z
           M 248.00,99.47
           C 259.73,97.94 269.91,104.52 273.21,116.00
             274.38,120.07 274.00,128.44 274.00,133.00
             274.00,133.00 274.00,164.00 274.00,164.00
             274.00,164.00 274.00,387.00 274.00,387.00
             273.99,393.07 273.70,397.74 270.15,403.00
             262.93,413.70 248.40,415.66 238.00,408.48
             238.00,408.48 223.72,397.34 223.72,397.34
             223.72,397.34 201.00,379.31 201.00,379.31
             201.00,379.31 162.04,348.77 162.04,348.77
             157.06,344.83 139.45,330.00 135.00,328.56
             132.94,327.89 130.18,328.00 128.00,328.00
             128.00,328.00 69.00,328.00 69.00,328.00
             53.15,327.98 45.03,319.83 45.00,304.00
             45.00,304.00 45.00,208.00 45.00,208.00
             45.00,204.98 44.90,201.92 45.80,199.00
             49.19,188.03 58.46,184.02 69.00,184.00
             69.00,184.00 128.00,184.00 128.00,184.00
             130.51,184.00 133.65,184.14 136.00,183.27
             139.28,182.05 144.17,177.59 147.00,175.25
             147.00,175.25 163.00,162.40 163.00,162.40
             163.00,162.40 220.00,117.63 220.00,117.63
             228.67,111.09 237.24,102.03 248.00,99.47 Z" />
</svg>
