<?xml version="1.0" encoding="UTF-8" standalone="no"?>
<!DOCTYPE svg PUBLIC "-//W3C//DTD SVG 20010904//EN"
              "http://www.w3.org/TR/2001/REC-SVG-20010904/DTD/svg10.dtd">

<svg xmlns="http://www.w3.org/2000/svg"
     width="1.70667in" height="1.70667in"
     viewBox="0 0 512 512">
  <path id="Vol_Up"
        fill="none" stroke="white" stroke-width="20"
        d="M 384.00,234.00
           C 384.00,234.00 384.00,194.00 384.00,194.00
             384.01,187.61 384.20,183.31 388.53,178.09
             397.50,167.28 414.49,167.80 422.78,179.09
             426.78,184.54 426.99,188.57 427.00,195.00
             427.00,195.00 427.00,234.00 427.00,234.00
             427.00,234.00 465.00,234.00 465.00,234.00
             471.28,234.03 477.75,234.88 482.83,238.94
             494.06,247.91 493.68,265.41 481.91,273.75
             477.01,277.23 470.84,277.97 465.00,278.00
             465.00,278.00 427.00,278.00 427.00,278.00
             427.00,278.00 427.00,312.00 427.00,312.00
             427.00,320.00 427.84,326.01 422.78,332.91
             414.49,344.20 397.50,344.72 388.53,333.91
             384.20,328.69 384.01,324.39 384.00,318.00
             384.00,318.00 384.00,278.00 384.00,278.00
             384.00,278.00 351.00,278.00 351.00,278.00
             342.39,278.00 335.42,278.73 328.04,273.21
             317.96,265.67 316.99,249.00 326.18,240.33
             332.06,234.79 338.36,234.01 346.00,234.00
             346.00,234.00 384.00,234.00 384.00,234.00 Z
           M 248.00,99.47
           C 259.73,97.94 269.91,104.52 273.21,116.00
             274.38,120.07 274.00,128.44 274.00,133.00
             274.00,133.00 274.00,164.00 274.00,164.00
             274.00,164.00 274.00,387.00 274.00,387.00
             273.99,393.07 273.70,397.74 270.15,403.00
             262.93,413.70 248.40,415.66 238.00,408.48
             238.00,408.48 223.72,397.34 223.72,397.34
             223.72,397.34 201.00,379.31 201.00,379.31
             201.00,379.31 162.04,348.77 162.04,348.77
             157.06,344.83 139.45,330.00 135.00,328.56
             132.94,327.89 130.18,328.00 128.00,328.00
             128.00,328.00 69.00,328.00 69.00,328.00
             53.15,327.98 45.03,319.83 45.00,304.00
             45.00,304.00 45.00,208.00 45.00,208.00
             45.00,204.98 44.90,201.92 45.80,199.00
             49.19,188.03 58.46,184.02 69.00,184.00
             69.00,184.00 128.00,184.00 128.00,184.00
             130.51,184.00 133.65,184.14 136.00,183.27
             139.28,182.05 144.17,177.59 147.00,175.25
             147.00,175.25 163.00,162.40 163.00,162.40
             163.00,162.40 220.00,117.63 220.00,117.63
             228.67,111.09 237.24,102.03 248.00,99.47 Z" />
</svg>
